<svg width="245" height="259" viewBox="0 0 245 259" fill="none" xmlns="http://www.w3.org/2000/svg">
<g filter="url(#filter0_d_1_481)">
<rect x="46" y="14" width="153" height="203" rx="32" fill="url(#paint0_linear_1_481)"/>
</g>
<rect y="14" width="245" height="203" rx="32" fill="url(#paint1_linear_1_481)"/>
<mask id="mask0_1_481" style="mask-type:alpha" maskUnits="userSpaceOnUse" x="0" y="14" width="245" height="203">
<rect y="14" width="245" height="203" rx="32" fill="white"/>
</mask>
<g mask="url(#mask0_1_481)">
<circle cx="232" cy="177" r="85" fill="url(#paint2_linear_1_481)" fill-opacity="0.6"/>
</g>
<path d="M26.75 48.4032C26.75 49.1782 26.1344 49.8065 25.375 49.8065C24.6156 49.8065 24 49.1782 24 48.4032C24 47.6282 24.6156 47 25.375 47C26.1344 47 26.75 47.6282 26.75 48.4032Z" fill="white"/>
<path d="M33.1667 48.4032C33.1667 49.1782 32.5511 49.8065 31.7917 49.8065C31.0323 49.8065 30.4167 49.1782 30.4167 48.4032C30.4167 47.6282 31.0323 47 31.7917 47C32.5511 47 33.1667 47.6282 33.1667 48.4032Z" fill="white"/>
<path d="M39.5833 48.4032C39.5833 49.1782 38.9677 49.8065 38.2083 49.8065C37.4489 49.8065 36.8333 49.1782 36.8333 48.4032C36.8333 47.6282 37.4489 47 38.2083 47C38.9677 47 39.5833 47.6282 39.5833 48.4032Z" fill="white"/>
<path d="M46 48.4032C46 49.1782 45.3844 49.8065 44.625 49.8065C43.8656 49.8065 43.25 49.1782 43.25 48.4032C43.25 47.6282 43.8656 47 44.625 47C45.3844 47 46 47.6282 46 48.4032Z" fill="white"/>
<path d="M26.75 54.9516C26.75 55.7266 26.1344 56.3548 25.375 56.3548C24.6156 56.3548 24 55.7266 24 54.9516C24 54.1766 24.6156 53.5484 25.375 53.5484C26.1344 53.5484 26.75 54.1766 26.75 54.9516Z" fill="white"/>
<path d="M33.1667 54.9516C33.1667 55.7266 32.5511 56.3548 31.7917 56.3548C31.0323 56.3548 30.4167 55.7266 30.4167 54.9516C30.4167 54.1766 31.0323 53.5484 31.7917 53.5484C32.5511 53.5484 33.1667 54.1766 33.1667 54.9516Z" fill="white"/>
<path d="M39.5833 54.9516C39.5833 55.7266 38.9677 56.3548 38.2083 56.3548C37.4489 56.3548 36.8333 55.7266 36.8333 54.9516C36.8333 54.1766 37.4489 53.5484 38.2083 53.5484C38.9677 53.5484 39.5833 54.1766 39.5833 54.9516Z" fill="white"/>
<path d="M46 54.9516C46 55.7266 45.3844 56.3548 44.625 56.3548C43.8656 56.3548 43.25 55.7266 43.25 54.9516C43.25 54.1766 43.8656 53.5484 44.625 53.5484C45.3844 53.5484 46 54.1766 46 54.9516Z" fill="white"/>
<path d="M26.75 61.5C26.75 62.275 26.1344 62.9032 25.375 62.9032C24.6156 62.9032 24 62.275 24 61.5C24 60.725 24.6156 60.0968 25.375 60.0968C26.1344 60.0968 26.75 60.725 26.75 61.5Z" fill="white"/>
<path d="M33.1667 61.5C33.1667 62.275 32.5511 62.9032 31.7917 62.9032C31.0323 62.9032 30.4167 62.275 30.4167 61.5C30.4167 60.725 31.0323 60.0968 31.7917 60.0968C32.5511 60.0968 33.1667 60.725 33.1667 61.5Z" fill="white"/>
<path d="M39.5833 61.5C39.5833 62.275 38.9677 62.9032 38.2083 62.9032C37.4489 62.9032 36.8333 62.275 36.8333 61.5C36.8333 60.725 37.4489 60.0968 38.2083 60.0968C38.9677 60.0968 39.5833 60.725 39.5833 61.5Z" fill="white"/>
<path d="M46 61.5C46 62.275 45.3844 62.9032 44.625 62.9032C43.8656 62.9032 43.25 62.275 43.25 61.5C43.25 60.725 43.8656 60.0968 44.625 60.0968C45.3844 60.0968 46 60.725 46 61.5Z" fill="white"/>
<path d="M26.75 68.0484C26.75 68.8234 26.1344 69.4516 25.375 69.4516C24.6156 69.4516 24 68.8234 24 68.0484C24 67.2734 24.6156 66.6452 25.375 66.6452C26.1344 66.6452 26.75 67.2734 26.75 68.0484Z" fill="white"/>
<path d="M33.1667 68.0484C33.1667 68.8234 32.5511 69.4516 31.7917 69.4516C31.0323 69.4516 30.4167 68.8234 30.4167 68.0484C30.4167 67.2734 31.0323 66.6452 31.7917 66.6452C32.5511 66.6452 33.1667 67.2734 33.1667 68.0484Z" fill="white"/>
<path d="M39.5833 68.0484C39.5833 68.8234 38.9677 69.4516 38.2083 69.4516C37.4489 69.4516 36.8333 68.8234 36.8333 68.0484C36.8333 67.2734 37.4489 66.6452 38.2083 66.6452C38.9677 66.6452 39.5833 67.2734 39.5833 68.0484Z" fill="white"/>
<path d="M46 68.0484C46 68.8234 45.3844 69.4516 44.625 69.4516C43.8656 69.4516 43.25 68.8234 43.25 68.0484C43.25 67.2734 43.8656 66.6452 44.625 66.6452C45.3844 66.6452 46 67.2734 46 68.0484Z" fill="white"/>
<path d="M26.75 74.5968C26.75 75.3718 26.1344 76 25.375 76C24.6156 76 24 75.3718 24 74.5968C24 73.8218 24.6156 73.1935 25.375 73.1935C26.1344 73.1935 26.75 73.8218 26.75 74.5968Z" fill="white"/>
<path d="M33.1667 74.5968C33.1667 75.3718 32.5511 76 31.7917 76C31.0323 76 30.4167 75.3718 30.4167 74.5968C30.4167 73.8218 31.0323 73.1935 31.7917 73.1935C32.5511 73.1935 33.1667 73.8218 33.1667 74.5968Z" fill="white"/>
<path d="M39.5833 74.5968C39.5833 75.3718 38.9677 76 38.2083 76C37.4489 76 36.8333 75.3718 36.8333 74.5968C36.8333 73.8218 37.4489 73.1935 38.2083 73.1935C38.9677 73.1935 39.5833 73.8218 39.5833 74.5968Z" fill="white"/>
<path d="M46 74.5968C46 75.3718 45.3844 76 44.625 76C43.8656 76 43.25 75.3718 43.25 74.5968C43.25 73.8218 43.8656 73.1935 44.625 73.1935C45.3844 73.1935 46 73.8218 46 74.5968Z" fill="white"/>
<path d="M50.725 170.149C50.7248 170.149 50.7245 170.148 50.7242 170.148L45.8256 165.273C45.4586 164.908 44.865 164.909 44.4997 165.276C44.1345 165.643 44.1359 166.237 44.5028 166.602L47.7918 169.875H27.9375C27.4197 169.875 27 170.295 27 170.812C27 171.33 27.4197 171.75 27.9375 171.75H47.7917L44.5029 175.023C44.1359 175.388 44.1345 175.982 44.4998 176.349C44.865 176.716 45.4587 176.717 45.8256 176.352L50.7242 171.477C50.7245 171.477 50.7248 171.476 50.7251 171.476C51.0923 171.11 51.0911 170.514 50.725 170.149Z" fill="white"/>
<path d="M22.512 107V90.608H25.824V107H22.512ZM28.6716 107V94.952H31.8636V95.72C32.1196 95.56 32.4316 95.408 32.7996 95.264C33.1676 95.104 33.5516 94.968 33.9516 94.856C34.3676 94.744 34.7676 94.688 35.1516 94.688C36.2716 94.688 37.1356 94.888 37.7436 95.288C38.3676 95.672 38.8076 96.312 39.0636 97.208C39.3196 98.088 39.4476 99.272 39.4476 100.76V107H36.2316V100.928C36.2316 100.096 36.1836 99.432 36.0876 98.936C35.9916 98.424 35.8076 98.056 35.5356 97.832C35.2636 97.608 34.8636 97.496 34.3356 97.496C34.0476 97.496 33.7436 97.528 33.4236 97.592C33.1196 97.64 32.8236 97.712 32.5356 97.808C32.2636 97.904 32.0396 98 31.8636 98.096V107H28.6716ZM46.8572 107.264C45.4812 107.264 44.4012 107.056 43.6172 106.64C42.8492 106.208 42.3052 105.52 41.9852 104.576C41.6812 103.632 41.5292 102.392 41.5292 100.856C41.5292 99.336 41.7052 98.128 42.0572 97.232C42.4092 96.32 42.9772 95.672 43.7612 95.288C44.5612 94.888 45.6012 94.688 46.8812 94.688C47.2172 94.688 47.6092 94.712 48.0572 94.76C48.5052 94.808 48.9532 94.872 49.4012 94.952C49.8652 95.016 50.2572 95.08 50.5772 95.144L50.4572 97.712C50.1532 97.68 49.8092 97.656 49.4252 97.64C49.0412 97.608 48.6652 97.584 48.2972 97.568C47.9452 97.536 47.6572 97.52 47.4332 97.52C46.7452 97.52 46.2012 97.632 45.8012 97.856C45.4172 98.064 45.1452 98.416 44.9852 98.912C44.8412 99.392 44.7692 100.04 44.7692 100.856C44.7692 101.736 44.8412 102.44 44.9852 102.968C45.1292 103.496 45.3852 103.872 45.7532 104.096C46.1372 104.32 46.6972 104.432 47.4332 104.432C47.6572 104.432 47.9532 104.424 48.3212 104.408C48.6892 104.376 49.0652 104.344 49.4492 104.312C49.8492 104.28 50.2012 104.256 50.5052 104.24L50.6012 106.808C50.2812 106.872 49.8972 106.936 49.4492 107C49.0012 107.08 48.5452 107.144 48.0812 107.192C47.6332 107.24 47.2252 107.264 46.8572 107.264ZM52.6716 107V94.952H55.8636V96.368C56.1356 96.16 56.4716 95.944 56.8716 95.72C57.2716 95.48 57.7036 95.264 58.1676 95.072C58.6476 94.864 59.1036 94.728 59.5356 94.664V97.76C59.1196 97.824 58.6796 97.936 58.2156 98.096C57.7516 98.24 57.3116 98.4 56.8956 98.576C56.4956 98.752 56.1516 98.912 55.8636 99.056V107H52.6716ZM66.0748 107.264C64.7468 107.264 63.6908 107.04 62.9068 106.592C62.1388 106.144 61.5868 105.464 61.2508 104.552C60.9148 103.64 60.7468 102.496 60.7468 101.12C60.7468 99.632 60.9548 98.416 61.3708 97.472C61.8028 96.528 62.4268 95.832 63.2428 95.384C64.0588 94.92 65.0668 94.688 66.2668 94.688C68.0428 94.688 69.3788 95.136 70.2748 96.032C71.1868 96.928 71.6428 98.344 71.6428 100.28L71.4988 102.056H63.9628C63.9788 102.952 64.1628 103.624 64.5148 104.072C64.8668 104.52 65.4748 104.744 66.3388 104.744C66.8348 104.744 67.3788 104.736 67.9708 104.72C68.5628 104.688 69.1468 104.656 69.7228 104.624C70.3148 104.592 70.8188 104.56 71.2348 104.528L71.3068 106.76C70.9068 106.824 70.4028 106.896 69.7948 106.976C69.1868 107.056 68.5548 107.12 67.8988 107.168C67.2588 107.232 66.6508 107.264 66.0748 107.264ZM63.9628 100.016H68.4508C68.4508 98.928 68.2748 98.168 67.9228 97.736C67.5868 97.304 67.0348 97.088 66.2668 97.088C65.5148 97.088 64.9388 97.312 64.5388 97.76C64.1548 98.208 63.9628 98.96 63.9628 100.016ZM76.9093 107.264C75.6613 107.264 74.7173 106.952 74.0773 106.328C73.4533 105.688 73.1413 104.728 73.1413 103.448C73.1413 102.552 73.3013 101.856 73.6213 101.36C73.9413 100.848 74.4133 100.48 75.0373 100.256C75.6773 100.016 76.4533 99.872 77.3653 99.824L80.2933 99.56V98.84C80.2933 98.264 80.1493 97.864 79.8613 97.64C79.5733 97.4 79.1493 97.28 78.5893 97.28C78.1413 97.28 77.6213 97.296 77.0293 97.328C76.4533 97.36 75.8773 97.4 75.3013 97.448C74.7413 97.496 74.2533 97.544 73.8373 97.592L73.7413 95.336C74.1573 95.24 74.6533 95.144 75.2293 95.048C75.8213 94.936 76.4373 94.848 77.0773 94.784C77.7173 94.72 78.3093 94.688 78.8533 94.688C79.8773 94.688 80.7333 94.816 81.4213 95.072C82.1093 95.328 82.6293 95.752 82.9813 96.344C83.3333 96.92 83.5093 97.704 83.5093 98.696V104.192C83.5413 104.416 83.6613 104.592 83.8693 104.72C84.0773 104.832 84.3173 104.912 84.5893 104.96L84.5173 107.168C84.1333 107.184 83.7573 107.192 83.3893 107.192C83.0213 107.192 82.7093 107.168 82.4533 107.12C82.0853 107.072 81.7653 106.976 81.4933 106.832C81.2373 106.688 81.0293 106.536 80.8693 106.376C80.6133 106.488 80.2693 106.616 79.8373 106.76C79.4053 106.904 78.9333 107.024 78.4213 107.12C77.9253 107.216 77.4213 107.264 76.9093 107.264ZM77.6773 104.888C77.9813 104.888 78.3013 104.856 78.6373 104.792C78.9733 104.728 79.2853 104.656 79.5733 104.576C79.8773 104.48 80.1173 104.392 80.2933 104.312V101.552L77.8453 101.768C77.3173 101.816 76.9333 101.976 76.6933 102.248C76.4693 102.504 76.3573 102.872 76.3573 103.352C76.3573 103.832 76.4613 104.208 76.6693 104.48C76.8933 104.752 77.2293 104.888 77.6773 104.888ZM90.6718 107.264C90.1438 107.264 89.5758 107.232 88.9678 107.168C88.3758 107.12 87.8158 107.056 87.2878 106.976C86.7758 106.896 86.3358 106.816 85.9678 106.736L86.0638 104.36C86.4798 104.408 86.9438 104.464 87.4558 104.528C87.9838 104.592 88.4958 104.648 88.9918 104.696C89.5038 104.728 89.9198 104.744 90.2398 104.744C90.7198 104.744 91.1118 104.704 91.4158 104.624C91.7358 104.544 91.9758 104.416 92.1358 104.24C92.2958 104.048 92.3758 103.776 92.3758 103.424C92.3758 103.152 92.3038 102.944 92.1598 102.8C92.0318 102.656 91.7758 102.536 91.3918 102.44C91.0238 102.328 90.4798 102.216 89.7598 102.104C88.8638 101.976 88.1198 101.792 87.5278 101.552C86.9518 101.312 86.5278 100.96 86.2558 100.496C85.9838 100.016 85.8478 99.368 85.8478 98.552C85.8478 97.56 86.0638 96.784 86.4958 96.224C86.9278 95.664 87.5038 95.272 88.2238 95.048C88.9438 94.808 89.7278 94.688 90.5758 94.688C91.1358 94.688 91.7118 94.72 92.3038 94.784C92.8958 94.832 93.4558 94.896 93.9838 94.976C94.5118 95.056 94.9518 95.136 95.3038 95.216L95.2078 97.64C94.8078 97.576 94.3438 97.52 93.8158 97.472C93.2878 97.408 92.7598 97.36 92.2318 97.328C91.7198 97.296 91.2878 97.28 90.9358 97.28C90.5678 97.28 90.2398 97.32 89.9518 97.4C89.6638 97.464 89.4398 97.576 89.2798 97.736C89.1358 97.896 89.0638 98.136 89.0638 98.456C89.0638 98.68 89.1278 98.864 89.2558 99.008C89.3838 99.152 89.6238 99.28 89.9758 99.392C90.3438 99.488 90.8718 99.584 91.5598 99.68C92.5518 99.824 93.3438 100.024 93.9358 100.28C94.5278 100.536 94.9518 100.904 95.2078 101.384C95.4798 101.864 95.6158 102.512 95.6158 103.328C95.6158 104.784 95.1838 105.808 94.3198 106.4C93.4718 106.976 92.2558 107.264 90.6718 107.264ZM102.59 107.264C101.262 107.264 100.206 107.04 99.4224 106.592C98.6544 106.144 98.1024 105.464 97.7664 104.552C97.4304 103.64 97.2624 102.496 97.2624 101.12C97.2624 99.632 97.4704 98.416 97.8864 97.472C98.3184 96.528 98.9424 95.832 99.7584 95.384C100.574 94.92 101.582 94.688 102.782 94.688C104.558 94.688 105.894 95.136 106.79 96.032C107.702 96.928 108.158 98.344 108.158 100.28L108.014 102.056H100.478C100.494 102.952 100.678 103.624 101.03 104.072C101.382 104.52 101.99 104.744 102.854 104.744C103.35 104.744 103.894 104.736 104.486 104.72C105.078 104.688 105.662 104.656 106.238 104.624C106.83 104.592 107.334 104.56 107.75 104.528L107.822 106.76C107.422 106.824 106.918 106.896 106.31 106.976C105.702 107.056 105.07 107.12 104.414 107.168C103.774 107.232 103.166 107.264 102.59 107.264ZM100.478 100.016H104.966C104.966 98.928 104.79 98.168 104.438 97.736C104.102 97.304 103.55 97.088 102.782 97.088C102.03 97.088 101.454 97.312 101.054 97.76C100.67 98.208 100.478 98.96 100.478 100.016ZM118.46 112.064L119.996 107H117.428L114.572 94.952H117.908L120.044 104.288H120.668L122.804 94.952H126.02L121.868 112.064H118.46ZM132.879 107.264C131.519 107.264 130.423 107.04 129.591 106.592C128.775 106.144 128.183 105.456 127.815 104.528C127.447 103.584 127.263 102.368 127.263 100.88C127.263 99.44 127.455 98.272 127.839 97.376C128.223 96.464 128.831 95.792 129.663 95.36C130.495 94.912 131.567 94.688 132.879 94.688C134.207 94.688 135.279 94.912 136.095 95.36C136.927 95.792 137.535 96.464 137.919 97.376C138.319 98.272 138.519 99.44 138.519 100.88C138.519 102.368 138.335 103.584 137.967 104.528C137.599 105.456 136.999 106.144 136.167 106.592C135.351 107.04 134.255 107.264 132.879 107.264ZM132.879 104.624C133.551 104.624 134.055 104.504 134.391 104.264C134.727 104.008 134.951 103.608 135.063 103.064C135.191 102.504 135.255 101.776 135.255 100.88C135.255 100 135.183 99.304 135.039 98.792C134.895 98.264 134.655 97.888 134.319 97.664C133.983 97.44 133.503 97.328 132.879 97.328C132.271 97.328 131.791 97.44 131.439 97.664C131.103 97.888 130.863 98.264 130.719 98.792C130.575 99.304 130.503 100 130.503 100.88C130.503 101.776 130.559 102.504 130.671 103.064C130.799 103.608 131.031 104.008 131.367 104.264C131.703 104.504 132.207 104.624 132.879 104.624ZM144.543 107.264C143.503 107.264 142.695 107.048 142.119 106.616C141.559 106.168 141.159 105.496 140.919 104.6C140.695 103.704 140.583 102.576 140.583 101.216V94.952H143.775V101.072C143.775 101.92 143.815 102.592 143.895 103.088C143.991 103.584 144.175 103.936 144.447 104.144C144.719 104.352 145.111 104.456 145.623 104.456C146.119 104.456 146.583 104.392 147.015 104.264C147.447 104.136 147.791 104.008 148.047 103.88V94.952H151.239V107H148.071V106.256C147.527 106.56 146.983 106.808 146.439 107C145.911 107.176 145.279 107.264 144.543 107.264ZM153.875 107V94.952H157.067V96.368C157.339 96.16 157.675 95.944 158.075 95.72C158.475 95.48 158.907 95.264 159.371 95.072C159.851 94.864 160.307 94.728 160.739 94.664V97.76C160.323 97.824 159.883 97.936 159.419 98.096C158.955 98.24 158.515 98.4 158.099 98.576C157.699 98.752 157.355 98.912 157.067 99.056V107H153.875ZM23.737 141L21.529 129.454H24.795L26.29 138.401H26.635L28.498 129.707H31.442L33.374 138.401H33.719L35.214 129.454H38.273L36.134 141H31.511L29.878 133.571L28.245 141H23.737ZM45.0445 141.253C43.7412 141.253 42.6909 141.038 41.8935 140.609C41.1115 140.18 40.5442 139.52 40.1915 138.631C39.8389 137.726 39.6625 136.561 39.6625 135.135C39.6625 133.755 39.8465 132.636 40.2145 131.777C40.5825 130.903 41.1652 130.259 41.9625 129.845C42.7599 129.416 43.7872 129.201 45.0445 129.201C46.3172 129.201 47.3445 129.416 48.1265 129.845C48.9239 130.259 49.5065 130.903 49.8745 131.777C50.2579 132.636 50.4495 133.755 50.4495 135.135C50.4495 136.561 50.2732 137.726 49.9205 138.631C49.5679 139.52 48.9929 140.18 48.1955 140.609C47.4135 141.038 46.3632 141.253 45.0445 141.253ZM45.0445 138.723C45.6885 138.723 46.1715 138.608 46.4935 138.378C46.8155 138.133 47.0302 137.749 47.1375 137.228C47.2602 136.691 47.3215 135.994 47.3215 135.135C47.3215 134.292 47.2525 133.625 47.1145 133.134C46.9765 132.628 46.7465 132.268 46.4245 132.053C46.1025 131.838 45.6425 131.731 45.0445 131.731C44.4619 131.731 44.0019 131.838 43.6645 132.053C43.3425 132.268 43.1125 132.628 42.9745 133.134C42.8365 133.625 42.7675 134.292 42.7675 135.135C42.7675 135.994 42.8212 136.691 42.9285 137.228C43.0512 137.749 43.2735 138.133 43.5955 138.378C43.9175 138.608 44.4005 138.723 45.0445 138.723ZM52.5423 141V129.454H55.6013V130.811C55.862 130.612 56.184 130.405 56.5673 130.19C56.9507 129.96 57.3647 129.753 57.8093 129.569C58.2693 129.37 58.7063 129.239 59.1203 129.178V132.145C58.7217 132.206 58.3 132.314 57.8553 132.467C57.4107 132.605 56.989 132.758 56.5903 132.927C56.207 133.096 55.8773 133.249 55.6013 133.387V141H52.5423ZM60.7181 141V124.739H63.7771V133.801L65.1341 133.755L67.5261 129.454H70.7231L67.8021 134.882L70.8841 141H67.6641L65.1801 136.423L63.7771 136.492V141H60.7181ZM78.8786 141L76.6706 129.454H79.9366L81.4316 138.401H81.7766L83.6396 129.707H86.5836L88.5156 138.401H88.8606L90.3556 129.454H93.4146L91.2756 141H86.6526L85.0196 133.571L83.3866 141H78.8786ZM95.2181 141V129.454H98.2771V141H95.2181ZM95.2181 127.614V124.992H98.3001V127.614H95.2181ZM104.881 141.276C104.038 141.276 103.356 141.153 102.834 140.908C102.313 140.663 101.937 140.241 101.707 139.643C101.493 139.03 101.385 138.179 101.385 137.09V132.007H100.028V129.454H101.385V126.395H104.444V129.454H107.388V132.007H104.444V136.285C104.444 136.883 104.467 137.351 104.513 137.688C104.575 138.025 104.697 138.263 104.881 138.401C105.065 138.539 105.349 138.608 105.732 138.608C105.84 138.608 106.001 138.6 106.215 138.585C106.43 138.57 106.645 138.554 106.859 138.539C107.074 138.524 107.25 138.508 107.388 138.493L107.48 140.954C107.112 141.015 106.668 141.084 106.146 141.161C105.64 141.238 105.219 141.276 104.881 141.276ZM109.099 141V124.739H112.158V129.868C112.541 129.73 113.032 129.584 113.63 129.431C114.228 129.278 114.78 129.201 115.286 129.201C116.359 129.201 117.195 129.393 117.793 129.776C118.391 130.144 118.805 130.75 119.035 131.593C119.28 132.436 119.403 133.556 119.403 134.951V141H116.321V135.181C116.321 134.384 116.275 133.747 116.183 133.272C116.091 132.781 115.915 132.429 115.654 132.214C115.409 131.999 115.025 131.892 114.504 131.892C114.09 131.892 113.661 131.946 113.216 132.053C112.787 132.16 112.434 132.26 112.158 132.352V141H109.099ZM126.821 141V124.739H129.88V133.801L131.237 133.755L133.629 129.454H136.826L133.905 134.882L136.987 141H133.767L131.283 136.423L129.88 136.492V141H126.821ZM141.513 141.253C140.317 141.253 139.413 140.954 138.799 140.356C138.201 139.743 137.902 138.823 137.902 137.596C137.902 136.737 138.056 136.07 138.362 135.595C138.669 135.104 139.121 134.752 139.719 134.537C140.333 134.307 141.076 134.169 141.95 134.123L144.756 133.87V133.18C144.756 132.628 144.618 132.245 144.342 132.03C144.066 131.8 143.66 131.685 143.123 131.685C142.694 131.685 142.196 131.7 141.628 131.731C141.076 131.762 140.524 131.8 139.972 131.846C139.436 131.892 138.968 131.938 138.569 131.984L138.477 129.822C138.876 129.73 139.351 129.638 139.903 129.546C140.471 129.439 141.061 129.354 141.674 129.293C142.288 129.232 142.855 129.201 143.376 129.201C144.358 129.201 145.178 129.324 145.837 129.569C146.497 129.814 146.995 130.221 147.332 130.788C147.67 131.34 147.838 132.091 147.838 133.042V138.309C147.869 138.524 147.984 138.692 148.183 138.815C148.383 138.922 148.613 138.999 148.873 139.045L148.804 141.161C148.436 141.176 148.076 141.184 147.723 141.184C147.371 141.184 147.072 141.161 146.826 141.115C146.474 141.069 146.167 140.977 145.906 140.839C145.661 140.701 145.462 140.555 145.308 140.402C145.063 140.509 144.733 140.632 144.319 140.77C143.905 140.908 143.453 141.023 142.962 141.115C142.487 141.207 142.004 141.253 141.513 141.253ZM142.249 138.976C142.541 138.976 142.847 138.945 143.169 138.884C143.491 138.823 143.79 138.754 144.066 138.677C144.358 138.585 144.588 138.501 144.756 138.424V135.779L142.41 135.986C141.904 136.032 141.536 136.185 141.306 136.446C141.092 136.691 140.984 137.044 140.984 137.504C140.984 137.964 141.084 138.324 141.283 138.585C141.498 138.846 141.82 138.976 142.249 138.976ZM150.539 141V129.454H153.598V130.19C153.844 130.037 154.143 129.891 154.495 129.753C154.848 129.6 155.216 129.469 155.599 129.362C155.998 129.255 156.381 129.201 156.749 129.201C157.823 129.201 158.651 129.393 159.233 129.776C159.831 130.144 160.253 130.757 160.498 131.616C160.744 132.459 160.866 133.594 160.866 135.02V141H157.784V135.181C157.784 134.384 157.738 133.747 157.646 133.272C157.554 132.781 157.378 132.429 157.117 132.214C156.857 131.999 156.473 131.892 155.967 131.892C155.691 131.892 155.4 131.923 155.093 131.984C154.802 132.03 154.518 132.099 154.242 132.191C153.982 132.283 153.767 132.375 153.598 132.467V141H150.539ZM167.852 141.253C167.469 141.253 167.001 141.238 166.449 141.207C165.897 141.176 165.33 141.13 164.747 141.069C164.18 141.008 163.674 140.954 163.229 140.908V124.739H166.311V129.822C166.664 129.684 167.124 129.546 167.691 129.408C168.259 129.27 168.788 129.201 169.278 129.201C170.352 129.201 171.203 129.423 171.831 129.868C172.475 130.297 172.935 130.941 173.211 131.8C173.487 132.659 173.625 133.74 173.625 135.043C173.625 136.576 173.449 137.803 173.096 138.723C172.759 139.628 172.169 140.279 171.325 140.678C170.482 141.061 169.324 141.253 167.852 141.253ZM167.875 138.677C168.627 138.677 169.186 138.547 169.554 138.286C169.922 138.01 170.168 137.604 170.29 137.067C170.428 136.53 170.497 135.871 170.497 135.089C170.497 134.292 170.436 133.655 170.313 133.18C170.191 132.689 169.984 132.337 169.692 132.122C169.416 131.892 169.025 131.777 168.519 131.777C168.136 131.777 167.737 131.831 167.323 131.938C166.909 132.045 166.572 132.145 166.311 132.237V138.585C166.541 138.6 166.81 138.623 167.116 138.654C167.423 138.669 167.676 138.677 167.875 138.677ZM178.754 141.253C177.558 141.253 176.653 140.954 176.04 140.356C175.442 139.743 175.143 138.823 175.143 137.596C175.143 136.737 175.296 136.07 175.603 135.595C175.909 135.104 176.362 134.752 176.96 134.537C177.573 134.307 178.317 134.169 179.191 134.123L181.997 133.87V133.18C181.997 132.628 181.859 132.245 181.583 132.03C181.307 131.8 180.9 131.685 180.364 131.685C179.934 131.685 179.436 131.7 178.869 131.731C178.317 131.762 177.765 131.8 177.213 131.846C176.676 131.892 176.208 131.938 175.81 131.984L175.718 129.822C176.116 129.73 176.592 129.638 177.144 129.546C177.711 129.439 178.301 129.354 178.915 129.293C179.528 129.232 180.095 129.201 180.617 129.201C181.598 129.201 182.418 129.324 183.078 129.569C183.737 129.814 184.235 130.221 184.573 130.788C184.91 131.34 185.079 132.091 185.079 133.042V138.309C185.109 138.524 185.224 138.692 185.424 138.815C185.623 138.922 185.853 138.999 186.114 139.045L186.045 141.161C185.677 141.176 185.316 141.184 184.964 141.184C184.611 141.184 184.312 141.161 184.067 141.115C183.714 141.069 183.407 140.977 183.147 140.839C182.901 140.701 182.702 140.555 182.549 140.402C182.303 140.509 181.974 140.632 181.56 140.77C181.146 140.908 180.693 141.023 180.203 141.115C179.727 141.207 179.244 141.253 178.754 141.253ZM179.49 138.976C179.781 138.976 180.088 138.945 180.41 138.884C180.732 138.823 181.031 138.754 181.307 138.677C181.598 138.585 181.828 138.501 181.997 138.424V135.779L179.651 135.986C179.145 136.032 178.777 136.185 178.547 136.446C178.332 136.691 178.225 137.044 178.225 137.504C178.225 137.964 178.324 138.324 178.524 138.585C178.738 138.846 179.06 138.976 179.49 138.976ZM187.78 141V129.454H190.839V130.19C191.084 130.037 191.383 129.891 191.736 129.753C192.088 129.6 192.456 129.469 192.84 129.362C193.238 129.255 193.622 129.201 193.99 129.201C195.063 129.201 195.891 129.393 196.474 129.776C197.072 130.144 197.493 130.757 197.739 131.616C197.984 132.459 198.107 133.594 198.107 135.02V141H195.025V135.181C195.025 134.384 194.979 133.747 194.887 133.272C194.795 132.781 194.618 132.429 194.358 132.214C194.097 131.999 193.714 131.892 193.208 131.892C192.932 131.892 192.64 131.923 192.334 131.984C192.042 132.03 191.759 132.099 191.483 132.191C191.222 132.283 191.007 132.375 190.839 132.467V141H187.78Z" fill="white"/>
<defs>
<filter id="filter0_d_1_481" x="18" y="0" width="209" height="259" filterUnits="userSpaceOnUse" color-interpolation-filters="sRGB">
<feFlood flood-opacity="0" result="BackgroundImageFix"/>
<feColorMatrix in="SourceAlpha" type="matrix" values="0 0 0 0 0 0 0 0 0 0 0 0 0 0 0 0 0 0 127 0" result="hardAlpha"/>
<feOffset dy="14"/>
<feGaussianBlur stdDeviation="14"/>
<feColorMatrix type="matrix" values="0 0 0 0 0.366667 0 0 0 0 0.810339 0 0 0 0 1 0 0 0 0.12 0"/>
<feBlend mode="normal" in2="BackgroundImageFix" result="effect1_dropShadow_1_481"/>
<feBlend mode="normal" in="SourceGraphic" in2="effect1_dropShadow_1_481" result="shape"/>
</filter>
<linearGradient id="paint0_linear_1_481" x1="122.5" y1="14" x2="274.696" y2="146.606" gradientUnits="userSpaceOnUse">
<stop stop-color="#1CBBFF"/>
<stop offset="1" stop-color="#4FF3FE"/>
</linearGradient>
<linearGradient id="paint1_linear_1_481" x1="122.5" y1="14" x2="268" y2="217" gradientUnits="userSpaceOnUse">
<stop stop-color="#076ECD"/>
<stop offset="0.973958" stop-color="#1CBBFF"/>
</linearGradient>
<linearGradient id="paint2_linear_1_481" x1="232" y1="92" x2="232" y2="262" gradientUnits="userSpaceOnUse">
<stop stop-color="#A0F9FF" stop-opacity="0.51"/>
<stop offset="1" stop-color="#A0F9FF" stop-opacity="0.2"/>
</linearGradient>
</defs>
</svg>
