<svg width="172" height="44" viewBox="0 0 172 44" fill="none" xmlns="http://www.w3.org/2000/svg">
<circle cx="22" cy="22" r="21" fill="#C4C4C4" stroke="#15132B" stroke-width="2"/>
<circle cx="54" cy="22" r="21" fill="#C4C4C4" stroke="#15132B" stroke-width="2"/>
<circle cx="86" cy="22" r="21" fill="#C4C4C4" stroke="#15132B" stroke-width="2"/>
<circle cx="118" cy="22" r="21" fill="#C4C4C4" stroke="#15132B" stroke-width="2"/>
<circle cx="150" cy="22" r="21" fill="#E328AF" stroke="#15132B" stroke-width="2"/>
<path d="M144.112 28.216C143.596 28.216 142.984 28.162 142.276 28.054C141.58 27.958 141.004 27.844 140.548 27.712L139.9 27.55L140.17 25.714C141.586 25.942 142.798 26.056 143.806 26.056C144.394 26.056 144.844 25.9 145.156 25.588C145.468 25.276 145.624 24.826 145.624 24.238C145.624 23.134 145.12 22.582 144.112 22.582C143.284 22.582 142.576 22.66 141.988 22.816L141.718 22.888L140.242 22.546L140.566 16.12H147.82V18.28H142.51L142.204 20.854C142.948 20.566 143.656 20.422 144.328 20.422C146.896 20.422 148.18 21.616 148.18 24.004C148.18 25.348 147.826 26.386 147.118 27.118C146.41 27.85 145.408 28.216 144.112 28.216ZM153.014 24.562H149.972V22.402H153.014V19.378H155.174V22.402H158.252V24.562H155.174V27.622H153.014V24.562Z" fill="white"/>
</svg>
