<svg width="28" height="28" viewBox="0 0 28 28" fill="none" xmlns="http://www.w3.org/2000/svg">
<g clip-path="url(#clip0_4201_45)">
<path d="M2.54521 0C1.14605 0 -0.000244141 1.14629 -0.000244141 2.54545V19.0909C-0.000244141 20.4901 1.14605 21.6364 2.54521 21.6364H4.01556C3.92977 21.1123 3.83734 20.538 3.82415 20.0368C3.82415 17.7169 5.15497 15.6365 7.17873 14.6314C6.67431 14.0256 6.36961 13.248 6.36961 12.4029C6.36961 10.4805 7.94387 8.90909 9.86712 8.90909C11.7904 8.90909 13.3634 10.4805 13.3634 12.4029C13.3634 13.2483 13.0587 14.0255 12.5543 14.6314C14.5787 15.6362 15.9088 17.7165 15.9088 20.0368C15.8779 20.638 15.8276 21.0623 15.6876 21.6364H25.4543C26.8535 21.6364 27.9998 20.4901 27.9998 19.0909V2.54545C27.9998 1.14629 26.8535 0 25.4543 0H2.54521ZM2.54521 1.27273H25.4543C26.1704 1.27273 26.727 1.82936 26.727 2.54545V5.09091H1.27248V2.54545C1.27248 1.82936 1.82912 1.27273 2.54521 1.27273ZM18.7638 8.98864L24.4911 12.1705C24.9287 12.4127 24.9287 13.0419 24.4911 13.2841L18.7638 16.4659C18.3393 16.7021 17.8174 16.3948 17.8179 15.9091V9.54545C17.8021 9.01539 18.3461 8.758 18.7638 8.98864ZM9.86712 10.1818C8.63102 10.1818 7.64233 11.169 7.64233 12.4029C7.64233 13.6367 8.63102 14.6239 9.86712 14.6239C11.1032 14.6239 12.0907 13.6367 12.0907 12.4029C12.0907 11.169 11.1032 10.1818 9.86712 10.1818ZM8.3222 15.53C6.39994 16.1859 5.09688 17.9883 5.09688 20.0368C5.11112 20.55 5.22314 21.1035 5.3032 21.6364H14.3962C14.544 21.0322 14.6071 20.5652 14.6361 20.0368C14.6361 17.9889 13.3339 16.1875 11.412 15.5312C10.9451 15.7633 10.4216 15.8967 9.86712 15.8967C9.31242 15.8967 8.78944 15.7622 8.3222 15.53Z" fill="#464366"/>
<path d="M6.36339 22.9091C5.18491 22.9091 4.18775 23.7249 3.90245 24.8182H-0.000244141V26.0909H3.90245C4.18775 27.1842 5.18491 28 6.36339 28C7.54223 28 8.54187 27.1847 8.82682 26.0909H27.9998V24.8182H8.82682C8.54187 23.7244 7.54223 22.9091 6.36339 22.9091Z" fill="#464366"/>
<path d="M24.1816 2.54547V3.8182H25.4543V2.54547H24.1816Z" fill="#464366"/>
<path d="M21.6361 2.54547V3.8182H22.9089V2.54547H21.6361Z" fill="#464366"/>
<path d="M19.0907 2.54547V3.8182H20.3634V2.54547H19.0907Z" fill="#464366"/>
<path d="M16.5452 2.54547V3.8182H17.8179V2.54547H16.5452Z" fill="#464366"/>
</g>
<defs>
<clipPath id="clip0_4201_45">
<rect width="28" height="28" fill="white" transform="translate(-0.000244141)"/>
</clipPath>
</defs>
</svg>
